<?xml version="1.0" ?><svg data-name="Layer 1" id="Layer_1" viewBox="0 0 272 272" xmlns="http://www.w3.org/2000/svg"><defs><style>.cls-1{fill:#ffeb3c;}.cls-2{fill:#e2e3e5;}</style></defs><title/><polygon class="cls-1" points="136 45 121.57 70 150.43 70 136 45"/><polygon class="cls-1" points="244 153 219 167.43 219 138.57 244 153"/><polygon class="cls-1" points="28 153 53 167.43 53 138.57 28 153"/><polygon class="cls-1" points="59.63 76.63 67.1 104.52 87.52 84.1 59.63 76.63"/><polygon class="cls-1" points="212.37 76.63 184.48 84.1 204.9 104.52 212.37 76.63"/><rect class="cls-2" height="16" rx="8" ry="8" width="24" x="8" y="211"/><path class="cls-2" d="M256,211H244c-1.47,0-2.67-1.79-2.67-4s1.19-4,2.67-4a12,12,0,0,0,0-24H188a12,12,0,0,0,0,24h40c1.47,0,2.67,1.79,2.67,4s-1.19,4-2.67,4h-4a8,8,0,0,0,0,16h32a8,8,0,0,0,0-16Z"/><rect class="cls-2" height="16" rx="8" ry="8" width="48" x="160" y="211"/><path class="cls-1" d="M136,86.5A66.5,66.5,0,0,0,74,177H84a14,14,0,0,1,7.77,25.64,66.45,66.45,0,0,0,66.87,12.88A10,10,0,0,1,168,209h3.83a66.87,66.87,0,0,0,8.4-6.36A14,14,0,0,1,188,177h10a66.5,66.5,0,0,0-62-90.5Z"/><path class="cls-2" d="M84,179H28a12,12,0,0,0,0,24H48a4,4,0,0,1,0,8,8,8,0,0,0,0,16H72a8,8,0,0,0,0-16,4,4,0,0,1,0-8H84a12,12,0,0,0,0-24Z"/></svg>